# xmcd CD database file
#
# Track frame offsets:
#	150
#	27050
#	60236
#	88117
#	129236
#	157373
#	180647
#	212850
#	239138
#	273652
#	301943
#	342306
#
# Disc length: 4801 seconds
#
# Revision: 1
# Processed by: cddbd v1.5.2PL0 Copyright (c) Steve Scherf et al.
# Submitted via: CDex 1.70beta2
#
DISCID=ad12bf0c
DTITLE=Various Artist - Jazz Rocks
DYEAR=1977
DGENRE=Jazz
TTITLE0=Weather Report: Birdland
TTITLE1=Herbie Hancock: Spider
TTITLE2=Return To Forever: So Long Mickey Mouse
TTITLE3=George Duke: Op On It
TTITLE4=Al Di Meola: Race With The Devil
TTITLE5=Janne Shaffer: Dimbaa Jullow
TTITLE6=Lee Ritenour: Captain Fingers
TTITLE7=Jeff Beck: Blue Wind
TTITLE8=Eric Gale: Ginseng Woman
TTITLE9=Hubert Laws: Undecided
TTITLE10=Jaco Pastorius: (Used To Be A) Cha Cha
TTITLE11=Alphonso Johnson: One To One
EXTD=YEAR: 1977
EXTT0=
EXTT1=
EXTT2=
EXTT3=
EXTT4=
EXTT5=
EXTT6=
EXTT7=
EXTT8=
EXTT9=
EXTT10=
EXTT11=
PLAYORDER=
